<?xml version="1.0" encoding="utf-8"?>
<!-- Generator: Adobe Illustrator 16.0.0, SVG Export Plug-In . SVG Version: 6.00 Build 0)  -->
<!DOCTYPE svg PUBLIC "-//W3C//DTD SVG 1.1//EN" "http://www.w3.org/Graphics/SVG/1.1/DTD/svg11.dtd">
<svg version="1.1" id="Layer_1" xmlns="http://www.w3.org/2000/svg" xmlns:xlink="http://www.w3.org/1999/xlink" x="0px" y="0px"
	 width="595.28px" height="227.466px" viewBox="0 0 595.28 227.466" enable-background="new 0 0 595.28 227.466"
	 xml:space="preserve">
<g>
	<g>
		<g>
			<defs>
				<path id="SVGID_1_" d="M61.718,133.982l-0.697,13.911c0,0,20.083-6.229,41.624-10.38v-12.931
					C102.645,124.583,73.303,129.688,61.718,133.982"/>
			</defs>
			<clipPath id="SVGID_2_">
				<use xlink:href="#SVGID_1_"  overflow="visible"/>
			</clipPath>
			
				<linearGradient id="SVGID_3_" gradientUnits="userSpaceOnUse" x1="-51.5044" y1="783.623" x2="-49.7373" y2="783.623" gradientTransform="matrix(23.5585 0 0 -23.5585 1274.4062 18597.2344)">
				<stop  offset="0" style="stop-color:#85C3CB"/>
				<stop  offset="1" style="stop-color:#40989C"/>
			</linearGradient>
			<rect x="61.021" y="124.583" clip-path="url(#SVGID_2_)" fill="url(#SVGID_3_)" width="41.624" height="23.311"/>
		</g>
		<g>
			<defs>
				<path id="SVGID_4_" d="M52.356,120.649c0,0,19.932,2.282,50.289,16.273v-12.756c0,0-18.496-8.597-50.289-14.381V120.649z"/>
			</defs>
			<clipPath id="SVGID_5_">
				<use xlink:href="#SVGID_4_"  overflow="visible"/>
			</clipPath>
			
				<linearGradient id="SVGID_6_" gradientUnits="userSpaceOnUse" x1="-43.9214" y1="867.3984" x2="-42.1548" y2="867.3984" gradientTransform="matrix(-28.4622 0 0 28.4622 -1147.4375 -24564.7422)">
				<stop  offset="0" style="stop-color:#85C3CB"/>
				<stop  offset="1" style="stop-color:#40989C"/>
			</linearGradient>
			<rect x="52.356" y="109.786" clip-path="url(#SVGID_5_)" fill="url(#SVGID_6_)" width="50.289" height="27.137"/>
		</g>
		<g>
			<defs>
				<path id="SVGID_7_" d="M52.356,109.123v11.229c0,0,38.521-14.421,58.881-16.644V89.588C111.237,89.588,84,93.115,52.356,109.123
					"/>
			</defs>
			<clipPath id="SVGID_8_">
				<use xlink:href="#SVGID_7_"  overflow="visible"/>
			</clipPath>
			
				<linearGradient id="SVGID_9_" gradientUnits="userSpaceOnUse" x1="-50.2783" y1="797.5215" x2="-48.5117" y2="797.5215" gradientTransform="matrix(33.3259 0 0 -33.3259 1727.9375 26683.0977)">
				<stop  offset="0" style="stop-color:#85C3CB"/>
				<stop  offset="1" style="stop-color:#40989C"/>
			</linearGradient>
			<rect x="52.356" y="89.588" clip-path="url(#SVGID_8_)" fill="url(#SVGID_9_)" width="58.881" height="30.765"/>
		</g>
		<g>
			<defs>
				<path id="SVGID_10_" d="M40.589,81.734v13.89c42.818-1.252,70.648,7.788,70.648,7.788V89.407
					c-22.427-6.831-47.69-7.879-61.097-7.879C44.202,81.528,40.589,81.734,40.589,81.734"/>
			</defs>
			<clipPath id="SVGID_11_">
				<use xlink:href="#SVGID_10_"  overflow="visible"/>
			</clipPath>
			
				<linearGradient id="SVGID_12_" gradientUnits="userSpaceOnUse" x1="-44.8989" y1="856.167" x2="-43.1318" y2="856.167" gradientTransform="matrix(-39.9857 0 0 39.9857 -1684.0625 -34141.9766)">
				<stop  offset="0" style="stop-color:#85C3CB"/>
				<stop  offset="1" style="stop-color:#40989C"/>
			</linearGradient>
			<rect x="40.589" y="81.528" clip-path="url(#SVGID_11_)" fill="url(#SVGID_12_)" width="70.648" height="21.884"/>
		</g>
	</g>
	<g>
		<path fill="#121740" d="M188.068,94.872c2.431,2.542,3.649,5.975,3.649,10.294v31.826H181.71v-31.58
			c0-2.843-0.479-4.841-1.436-5.988c-0.958-1.149-2.612-1.723-4.962-1.723c-3.609,0-6.808,1.613-9.598,4.84
			c0.053,0.274,0.083,0.711,0.083,1.313v33.138h-10.008v-32.399c0-2.407-0.466-4.157-1.396-5.253
			c-0.93-1.092-2.377-1.639-4.346-1.639c-1.805,0-3.542,0.452-5.209,1.353c-1.668,0.902-3.378,2.338-5.128,4.307v33.632h-9.924
			v-29.201c0-7.931-0.328-12.741-0.985-14.438c0.93-0.544,2.051-0.982,3.365-1.311c1.311-0.328,2.486-0.493,3.527-0.493
			c1.257,0,2.213,0.438,2.871,1.312c0.656,0.874,1.012,2.243,1.067,4.102c2.077-2.078,4.196-3.583,6.356-4.513
			c2.16-0.929,4.553-1.394,7.177-1.394c2.571,0,4.812,0.533,6.728,1.6c1.914,1.066,3.391,2.584,4.429,4.552
			c3.391-4.1,7.984-6.151,13.781-6.151C182.311,91.057,185.634,92.328,188.068,94.872z"/>
		<path fill="#121740" d="M241.098,116.076h-30.188c0.273,4.703,1.366,8.339,3.282,10.908c1.913,2.573,4.512,3.856,7.792,3.856
			c2.241,0,4.087-0.45,5.537-1.354c1.45-0.9,3.104-2.663,4.964-5.29c0.328-0.493,0.902-0.738,1.722-0.738
			c1.53,0,3.636,0.957,6.317,2.87c-1.532,3.721-3.896,6.564-7.097,8.531c-3.199,1.971-7.012,2.954-11.443,2.954
			c-6.617,0-11.826-2.091-15.627-6.275c-3.801-4.184-5.7-9.913-5.7-17.185c0-7.22,1.913-12.906,5.742-17.062
			c3.827-4.155,9.078-6.234,15.75-6.234c6.125,0,10.87,1.777,14.232,5.331c3.363,3.557,5.045,8.561,5.045,15.014
			C241.426,112.331,241.316,113.889,241.098,116.076z M231.336,110.005c0-8.146-3.145-12.221-9.433-12.221
			c-3.118,0-5.592,1.024-7.424,3.074c-1.833,2.05-2.968,5.101-3.404,9.146H231.336z"/>
		<path fill="#121740" d="M274.073,130.963c0.33,0.521,0.493,1.137,0.493,1.848c0,1.093-0.383,1.968-1.149,2.624
			c-0.875,0.712-2.174,1.285-3.896,1.724c-1.723,0.436-3.623,0.655-5.7,0.655c-3.72,0-6.686-1.025-8.901-3.077
			c-2.214-2.051-3.321-4.798-3.321-8.243V98.521h-7.464v-6.644h7.464V79.572h9.924v12.305h9.599v6.644h-9.599v26.906
			c0,2.078,0.383,3.568,1.149,4.47c0.766,0.903,1.997,1.354,3.69,1.354c2.08,0,4.238-0.462,6.481-1.395
			C273.335,130.077,273.745,130.445,274.073,130.963z"/>
		<path fill="#121740" d="M315.825,130.35c0.382,1.805,1.093,3.362,2.133,4.675c-0.932,0.711-2.12,1.298-3.567,1.764
			c-1.45,0.463-2.776,0.697-3.979,0.697c-2.624,0-4.212-2.16-4.759-6.48c-3.008,4.54-7.683,6.809-14.025,6.809
			c-4.048,0-7.316-1.081-9.804-3.24c-2.488-2.16-3.732-4.99-3.732-8.488c0-4.978,2.215-8.767,6.645-11.363
			c4.429-2.597,11.292-4.142,20.588-4.636v-3.688c0-5.359-2.815-8.04-8.449-8.04c-2.022,0-3.938,0.398-5.74,1.189
			c-1.805,0.794-3.939,2.146-6.399,4.06c-0.383,0.275-0.766,0.41-1.148,0.41c-0.876,0-1.804-0.504-2.79-1.518
			c-0.984-1.011-1.86-2.391-2.625-4.142c2.241-2.187,5.167-3.951,8.777-5.291c3.609-1.339,7.272-2.01,10.993-2.01
			c5.521,0,9.789,1.341,12.795,4.019c3.007,2.682,4.512,6.453,4.512,11.322v15.501C315.251,125.729,315.442,128.544,315.825,130.35z
			 M305.324,123.13v-7.382c-11.373,0.491-17.06,3.639-17.06,9.433c0,1.858,0.545,3.295,1.639,4.306
			c1.094,1.013,2.652,1.519,4.676,1.519C298.791,131.005,302.373,128.379,305.324,123.13z"/>
		<path fill="#121740" d="M350.852,130.963c0.329,0.521,0.493,1.137,0.493,1.848c0,1.093-0.382,1.968-1.148,2.624
			c-0.876,0.712-2.175,1.285-3.897,1.724c-1.723,0.436-3.623,0.655-5.7,0.655c-3.72,0-6.686-1.025-8.901-3.077
			c-2.214-2.051-3.32-4.798-3.32-8.243V98.521h-7.465v-6.644h7.465V79.572h9.924v12.305h9.6v6.644h-9.6v26.906
			c0,2.078,0.383,3.568,1.149,4.47c0.766,0.903,1.996,1.354,3.69,1.354c2.079,0,4.238-0.462,6.48-1.395
			C350.114,130.077,350.523,130.445,350.852,130.963z"/>
		<path fill="#121740" d="M395.312,116.076h-30.188c0.272,4.703,1.366,8.339,3.282,10.908c1.913,2.573,4.511,3.856,7.792,3.856
			c2.241,0,4.087-0.45,5.536-1.354c1.45-0.9,3.104-2.663,4.964-5.29c0.328-0.493,0.902-0.738,1.723-0.738
			c1.53,0,3.636,0.957,6.315,2.87c-1.532,3.721-3.896,6.564-7.096,8.531c-3.199,1.971-7.012,2.954-11.442,2.954
			c-6.617,0-11.826-2.091-15.628-6.275c-3.801-4.184-5.701-9.913-5.701-17.185c0-7.22,1.914-12.906,5.742-17.062
			c3.828-4.155,9.077-6.234,15.75-6.234c6.125,0,10.87,1.777,14.233,5.331c3.362,3.557,5.045,8.561,5.045,15.014
			C395.64,112.331,395.529,113.889,395.312,116.076z M385.549,110.005c0-8.146-3.146-12.221-9.433-12.221
			c-3.117,0-5.592,1.024-7.425,3.074c-1.831,2.05-2.967,5.101-3.403,9.146H385.549z"/>
		<path fill="#121740" d="M438.623,130.35c0.382,1.805,1.092,3.362,2.133,4.675c-0.932,0.711-2.121,1.298-3.568,1.764
			c-1.45,0.463-2.776,0.697-3.979,0.697c-2.624,0-4.211-2.16-4.758-6.48c-3.008,4.54-7.684,6.809-14.026,6.809
			c-4.048,0-7.315-1.081-9.804-3.24c-2.487-2.16-3.731-4.99-3.731-8.488c0-4.978,2.215-8.767,6.644-11.363
			c4.43-2.597,11.293-4.142,20.59-4.636v-3.688c0-5.359-2.816-8.04-8.45-8.04c-2.021,0-3.937,0.398-5.739,1.189
			c-1.806,0.794-3.939,2.146-6.4,4.06c-0.383,0.275-0.766,0.41-1.147,0.41c-0.876,0-1.805-0.504-2.789-1.518
			c-0.984-1.011-1.86-2.391-2.625-4.142c2.241-2.187,5.168-3.951,8.777-5.291c3.609-1.339,7.272-2.01,10.993-2.01
			c5.521,0,9.788,1.341,12.795,4.019c3.008,2.682,4.513,6.453,4.513,11.322v15.501C438.049,125.729,438.239,128.544,438.623,130.35z
			 M428.122,123.13v-7.382c-11.373,0.491-17.062,3.639-17.062,9.433c0,1.858,0.546,3.295,1.64,4.306
			c1.094,1.013,2.652,1.519,4.676,1.519C421.588,131.005,425.17,128.379,428.122,123.13z"/>
		<path fill="#121740" d="M507.485,94.872c2.432,2.542,3.649,5.975,3.649,10.294v31.826h-10.007v-31.58
			c0-2.843-0.48-4.841-1.437-5.988c-0.957-1.149-2.612-1.723-4.962-1.723c-3.609,0-6.808,1.613-9.598,4.84
			c0.053,0.274,0.082,0.711,0.082,1.313v33.138h-10.008v-32.399c0-2.407-0.466-4.157-1.396-5.253
			c-0.931-1.092-2.378-1.639-4.346-1.639c-1.806,0-3.543,0.452-5.209,1.353c-1.668,0.902-3.379,2.338-5.128,4.307v33.632h-9.925
			v-29.201c0-7.931-0.327-12.741-0.985-14.438c0.93-0.544,2.051-0.982,3.365-1.311c1.311-0.328,2.486-0.493,3.526-0.493
			c1.257,0,2.213,0.438,2.871,1.312c0.655,0.874,1.012,2.243,1.066,4.102c2.077-2.078,4.195-3.583,6.355-4.513
			c2.161-0.929,4.554-1.394,7.179-1.394c2.57,0,4.812,0.533,6.727,1.6c1.913,1.066,3.391,2.584,4.43,4.552
			c3.391-4.1,7.983-6.151,13.78-6.151C501.729,91.057,505.052,92.328,507.485,94.872z"/>
		<path fill="#121740" d="M527.909,136.664c-2.598-0.764-4.65-1.817-6.153-3.157c-1.504-1.339-2.255-2.83-2.255-4.47
			c0-1.259,0.437-2.339,1.312-3.241s2.105-1.436,3.692-1.6c1.365,2.297,3.048,4.007,5.044,5.129c1.996,1.12,4.47,1.68,7.424,1.68
			c2.843,0,4.934-0.587,6.275-1.763c1.339-1.177,2.011-2.749,2.011-4.718c0-1.805-0.809-3.172-2.421-4.102
			c-1.613-0.931-4.115-1.886-7.507-2.871c-3.115-0.93-5.688-1.844-7.71-2.748c-2.024-0.901-3.746-2.256-5.168-4.061
			c-1.424-1.804-2.132-4.129-2.132-6.972c0-2.627,0.779-4.907,2.337-6.851c1.559-1.938,3.61-3.404,6.154-4.389
			c2.541-0.983,5.262-1.476,8.16-1.476c3.827,0,7.205,0.738,10.13,2.213c2.927,1.478,5.236,3.503,6.933,6.07
			c-0.713,1.149-1.574,2.123-2.584,2.913c-1.014,0.794-1.928,1.19-2.747,1.19c-0.932,0-1.725-0.411-2.38-1.232
			c-2.516-3.005-5.578-4.51-9.188-4.51c-2.297,0-4.102,0.479-5.414,1.436s-1.969,2.419-1.969,4.39c0,1.312,0.438,2.391,1.312,3.238
			c0.875,0.849,1.955,1.519,3.24,2.01c1.284,0.494,3.103,1.066,5.454,1.723c3.117,0.876,5.673,1.737,7.672,2.584
			c1.993,0.85,3.702,2.146,5.126,3.896c1.422,1.751,2.133,4.075,2.133,6.974c0,4.376-1.588,7.778-4.758,10.212
			c-3.173,2.434-7.602,3.65-13.289,3.65C533.417,137.813,530.506,137.431,527.909,136.664z"/>
	</g>
</g>
</svg>
